<svg xmlns="http://www.w3.org/2000/svg" width="200" height="200" viewBox="0 0 200 200">
<!-- SVG created with Arrow, by QuiverAI (https://quiver.ai) -->
  <path d="m179.5 38.8h-86.94c-2.89 0-4.86-0.51-6.59-2.73l-9.99-11.66c-3.15-3.58-5.97-4.41-11.13-4.41h-45.26c-8.72 0-14.63 7.77-14.63 16.07v126.9c0 8.81 7.09 15.35 15.24 15.35h159.1c9.11 0 15.34-7.69 15.34-15.02v-109c0-8.7-6.56-15.51-15.18-15.51zm8.62 123.9c0 5.68-4.37 9.25-8.95 9.25h-159.1c-5.75 0-9.25-4.5-9.25-9.25v-126.6c0-5.35 4.09-9.01 8.81-9.01h46.38c3.08 0 4.7 0.93 6.4 2.93l10.05 10.87c3.8 4.29 7.09 4.92 11.21 4.92h85.14c6.17 0 9.35 4.33 9.35 9.12v107.8z" fill="#146BAF"/>
  <path d="m152.1 79.12h-23.41l-5.56-14.11c-1.42-3.33-4.05-5.48-7.4-5.48h-31.67c-3.88 0-6.28 1.79-7.62 5.68l-5.48 13.65h-3.05v-4.15c0-3.08-1.73-4.87-4.65-4.87h-11.18c-3 0-4.64 1.83-4.64 4.87v4.41h-0.25c-6.81 0-11.04 5.65-11.04 11.13v54.78c0 6.35 5.07 11.09 10.88 11.09h35.99c5.66 2.72 10.86 3.61 16.19 3.61 5.95 0 11.62-1.42 17.39-3.82h35.08c6.51 0 11.42-5.78 11.17-10.8v-55.02c0-6.39-5.12-10.97-10.75-10.97zm-99.28-3.78h8.88v3.52h-8.88v-3.52zm-5.63 9.68h24.19c2.78 0 4.36-1.4 5.4-4.4l5.24-13.19c0.54-1.17 1.26-1.75 2.28-1.75h31.18c1.28 0 1.88 0.54 2.3 2l5.48 13.57c1.04 2.62 2.7 3.52 5.22 3.52h23.2c4.01 0 5.21 3.69 5.21 5.48v8.45h-25.24c-7.77-10.62-17.76-16.31-32.44-16.31-13.23 0-23.06 5.94-31.46 16.02h-25.64v-8.16c0-3.04 2.28-5.23 5.08-5.23zm0 64.99c-3.29 0-5.37-2.8-5.37-5.37v-39.91h22.96c-2.6 5.68-4.03 10.53-4.03 16.64 0 10.82 4.65 21.41 13.04 28.64h-26.6zm52.02 3.9c-17.06 0-32.7-15.22-32.7-32.83 0-17.35 14.64-33 32.7-33 17.6 0 33.74 14.65 33.74 33 0 16.78-14.76 32.83-33.74 32.83zm57.68-9.27c0 3.04-2.62 5.37-5.21 5.37h-26.38c8.39-7.85 13.18-17.82 13.18-28.64 0-6.32-1.47-11.25-3.75-16.64h22.16v39.91z" fill="#146BAF"/>
  <path d="m142.7 94.63h6.04c2.4 0 2.87-1.62 2.87-2.87 0-1.92-1.17-2.97-3.37-2.97h-5.29c-2.32 0-3.66 0.93-3.66 2.97 0 1.96 1.22 2.87 3.41 2.87z" fill="#146BAF"/>
  <path d="m99.32 92.13c-14.99 0-28.45 12.93-28.45 28.78 0 15.65 13.05 28.84 28.37 28.84 15.55 0 28.89-12.98 28.64-28.84 0-15.35-12.92-28.78-28.56-28.78zm18.65 14.78h-19.91l5.67-8.85c5.89 1.17 10.85 4.42 14.24 8.85zm-20.75-9.28-9.99 17.75-4.52-9.48c4.52-4.99 9.2-7.49 14.51-8.27zm-18.13 13.46 9.45 17.83h-10.53c-1.08-2.89-1.54-5.07-1.54-8.01 0-3.48 0.92-6.44 2.62-9.82zm2.74 23.52h18.78l-5.12 9.13c-6.03-0.96-10.12-4.13-13.66-9.13zm13.33-5.69-4.79-8.51 4.79-7.23h9.06l4.17 7.23-4.78 8.51h-8.45zm6.39 15.44 10.54-18.2 5.47 9.73c-4.25 5.39-9.41 7.85-16.01 8.47zm18.97-13.94-9.91-17.24h10.54c1.08 2.89 1.54 5.18 1.54 8.1 0 3.25-0.8 6-2.17 9.14z" fill="#146BAF"/>
</svg>